<?xml version="1.0" standalone="no"?>
<!DOCTYPE svg PUBLIC "-//W3C//DTD SVG 20010904//EN"
 "http://www.w3.org/TR/2001/REC-SVG-20010904/DTD/svg10.dtd">
<svg version="1.0" xmlns="http://www.w3.org/2000/svg"
 width="577.000000pt" height="433.000000pt" viewBox="0 0 577.000000 433.000000"
 preserveAspectRatio="xMidYMid meet">

<g transform="translate(0.000000,433.000000) scale(0.100000,-0.100000)"
fill="#000000" stroke="none">
<path d="M1017 3603 c-14 -23 129 -196 256 -311 145 -131 164 -140 42 -18 -69
68 -115 121 -107 123 6 3 12 11 12 18 0 7 3 15 8 17 4 2 20 18 35 37 29 35 91
84 117 93 8 2 -44 12 -115 21 -213 28 -242 30 -248 20z"/>
<path d="M3780 3527 c3 -3 34 -17 69 -31 81 -33 126 -67 162 -124 33 -52 38
-49 10 6 -24 46 -51 71 -121 109 -47 27 -135 56 -120 40z"/>
<path d="M2071 3444 c-22 -19 -65 -66 -95 -103 -66 -80 -74 -124 -31 -167 27
-27 83 -54 113 -54 22 0 67 46 77 78 4 13 28 51 55 86 l48 63 -48 48 c-27 27
-48 53 -47 59 1 6 -6 10 -17 8 -11 -2 -15 1 -11 7 12 21 -5 11 -44 -25z"/>
<path d="M1600 3116 c0 -2 8 -10 18 -17 15 -13 16 -12 3 4 -13 16 -21 21 -21
13z"/>
<path d="M1670 3066 c0 -2 14 -14 30 -26 17 -12 30 -19 30 -16 0 2 -13 14 -30
26 -16 12 -30 19 -30 16z"/>
<path d="M3548 3033 c11 -16 33 -39 48 -53 16 -14 9 -2 -16 28 -46 56 -64 70
-32 25z"/>
<path d="M1060 3003 c0 -28 124 -254 221 -405 144 -222 220 -374 234 -470 6
-39 4 -49 -15 -68 -27 -27 -54 -23 -188 27 -51 19 -96 32 -100 29 -3 -4 17
-30 44 -59 28 -28 88 -94 133 -145 76 -87 202 -206 386 -367 44 -39 107 -98
141 -132 88 -90 106 -84 79 28 -21 83 -17 176 8 194 15 11 15 19 2 94 -13 73
-36 241 -79 586 -8 60 -13 111 -12 113 5 5 188 -119 256 -173 48 -38 73 -52
88 -49 23 7 151 -101 224 -187 23 -27 70 -70 103 -94 69 -49 128 -121 173
-210 29 -59 92 -235 92 -258 0 -28 22 -87 32 -87 7 0 9 35 6 113 -9 183 -68
373 -160 514 -85 130 -296 333 -347 333 -12 0 -21 4 -21 9 0 5 -7 12 -16 15
-15 6 -15 4 -3 -11 12 -15 12 -16 -3 -10 -10 3 -18 2 -18 -4 0 -6 -4 -8 -8 -5
-5 3 -26 6 -48 7 -21 1 -63 13 -92 27 -29 13 -56 21 -59 18 -3 -3 -12 2 -20
12 -9 10 -11 11 -7 2 7 -13 5 -13 -9 -1 -9 7 -14 18 -10 24 3 6 1 7 -6 3 -6
-4 -43 12 -84 39 -52 33 -80 45 -99 42 -15 -2 -29 0 -30 4 -2 3 -34 30 -73 60
-38 29 -72 55 -75 59 -3 3 -33 32 -67 63 -35 31 -61 57 -58 57 2 0 -17 22 -43
50 -35 36 -72 61 -142 93 -90 42 -316 137 -325 137 -3 0 -5 -7 -5 -17z m1081
-650 c13 -16 12 -17 -3 -4 -17 13 -22 21 -14 21 2 0 10 -8 17 -17z"/>
<path d="M1740 3016 c0 -2 8 -10 18 -17 15 -13 16 -12 3 4 -13 16 -21 21 -21
13z"/>
<path d="M1780 2986 c0 -3 9 -10 20 -16 11 -6 20 -8 20 -6 0 3 -9 10 -20 16
-11 6 -20 8 -20 6z"/>
<path d="M3635 2926 c10 -14 19 -26 22 -26 7 0 -17 39 -28 46 -6 3 -3 -5 6
-20z"/>
<path d="M1784 2932 c8 -13 117 -85 354 -236 263 -166 533 -362 581 -420 19
-22 41 -20 41 5 0 13 4 18 13 14 6 -4 -1 5 -16 19 -16 15 -33 24 -38 20 -5 -3
-8 0 -7 8 2 7 -5 12 -14 12 -10 -1 -16 2 -13 6 7 11 -43 50 -64 50 -18 1 -61
30 -44 30 7 0 15 -4 18 -10 3 -5 11 -10 18 -10 6 0 -11 15 -38 34 -28 18 -55
31 -61 29 -6 -2 -18 2 -25 9 -8 8 -21 17 -29 21 -8 4 -49 32 -90 62 -41 30
-91 64 -111 74 -21 11 -115 69 -210 128 -218 136 -273 168 -265 155z"/>
<path d="M2897 2846 c182 -89 265 -153 328 -255 24 -39 29 -42 38 -26 7 12 6
33 -1 66 -7 27 -9 55 -6 62 3 8 -3 20 -12 28 -16 13 -17 12 -12 -9 4 -12 2
-20 -2 -17 -5 3 -11 1 -15 -5 -4 -6 -11 -8 -16 -5 -5 4 -9 1 -9 -5 0 -7 -29
15 -66 48 -67 62 -182 129 -281 163 -97 33 -83 21 54 -45z"/>
<path d="M2821 2693 c0 -4 34 -35 76 -68 220 -173 431 -374 593 -564 88 -104
193 -258 261 -386 41 -77 54 -94 61 -81 11 20 5 43 -38 129 -19 37 -34 76 -34
85 0 9 24 67 54 127 69 138 122 282 135 366 13 75 13 257 2 314 -5 22 -9 30
-10 18 0 -13 -5 -23 -11 -23 -17 0 -89 -54 -90 -67 0 -7 -4 -13 -9 -13 -4 0
-11 -42 -14 -92 -11 -180 -125 -475 -176 -457 -5 2 -74 76 -153 164 -157 174
-223 236 -430 401 -132 106 -219 164 -217 147z"/>
<path d="M3365 2611 c0 -10 15 -40 32 -67 18 -27 44 -75 58 -108 14 -32 28
-57 30 -54 8 8 -27 123 -40 131 -8 4 -26 32 -41 62 -29 57 -42 69 -39 36z"/>
<path d="M4340 2242 c-18 -59 -39 -127 -47 -151 -15 -47 -15 -141 -1 -141 5 0
22 15 39 33 25 27 36 32 73 31 39 -1 45 2 59 30 9 17 17 53 19 81 5 77 -28 73
-86 -10 -30 -44 -41 -18 -26 62 7 37 12 78 12 90 0 13 4 20 9 18 6 -4 -7 51
-16 62 -1 2 -16 -45 -35 -105z"/>
<path d="M4176 2322 c-3 -6 -1 -14 5 -17 14 -9 20 -2 10 14 -6 8 -11 9 -15 3z"/>
<path d="M4140 2301 c0 -5 -11 -8 -24 -5 -17 3 -33 -4 -50 -21 -15 -14 -26
-20 -26 -14 0 12 -15 3 -15 -9 -1 -17 -50 -151 -67 -185 -27 -55 -79 -217 -72
-228 10 -17 83 -3 169 31 29 11 143 403 124 426 -13 16 -39 19 -39 5z"/>
<path d="M2185 2058 c15 -131 54 -288 105 -423 64 -171 115 -275 135 -275 21
0 19 23 -9 78 -70 140 -189 523 -168 544 12 12 92 -82 145 -169 39 -64 127
-275 127 -305 0 -31 88 -313 124 -396 33 -77 108 -218 127 -237 21 -21 7 27
-31 110 -49 107 -91 251 -120 410 -38 212 -69 348 -82 356 -7 4 -9 11 -5 15 4
4 -4 26 -18 49 -13 23 -21 45 -17 49 3 4 -1 4 -11 1 -15 -6 -15 -9 -1 -22 9
-9 12 -22 8 -32 -4 -9 -8 -26 -8 -38 -1 -13 -2 -23 -3 -23 -1 0 -16 28 -33 62
-17 34 -56 94 -86 134 -55 73 -157 174 -176 174 -6 0 -7 -22 -3 -62z"/>
<path d="M4231 1641 c-173 -179 -482 -453 -707 -627 -142 -109 -499 -349 -630
-422 -101 -57 -140 -90 -84 -70 110 38 600 367 845 567 185 151 623 561 660
618 29 44 1 22 -84 -66z"/>
<path d="M3235 1610 c-3 -5 0 -39 6 -76 31 -181 -32 -412 -181 -655 -78 -128
-74 -120 -56 -113 9 3 16 9 16 13 0 3 12 20 26 36 47 53 144 207 189 300 59
122 85 214 92 315 6 108 -8 156 -54 175 -19 8 -35 10 -38 5z"/>
<path d="M2100 1243 c0 -30 277 -258 475 -390 120 -80 337 -195 310 -164 -11
13 -45 36 -75 51 -172 87 -375 229 -570 395 -136 116 -140 119 -140 108z"/>
</g>
</svg>
